<mxfile host="app.diagrams.net" agent="Mozilla/5.0 (Windows NT 10.0; Win64; x64) AppleWebKit/537.36 (KHTML, like Gecko) Chrome/131.0.0.0 Safari/537.36" version="25.0.3">
  <diagram name="Page-1" id="q2A-L7Py8zmzE_GahzwR">
    <mxGraphModel dx="954" dy="639" grid="1" gridSize="10" guides="1" tooltips="1" connect="1" arrows="1" fold="1" page="1" pageScale="1" pageWidth="850" pageHeight="1100" math="0" shadow="0">
      <root>
        <mxCell id="0" />
        <mxCell id="1" parent="0" />
        <mxCell id="Ela1EfbPNly_L2jDQacJ-1" value="" style="rounded=1;whiteSpace=wrap;html=1;fillColor=#7DF591;strokeColor=#42B81D;" vertex="1" parent="1">
          <mxGeometry x="90" y="150" width="400" height="370" as="geometry" />
        </mxCell>
        <mxCell id="Ela1EfbPNly_L2jDQacJ-2" value="AudioContext" style="text;html=1;align=center;verticalAlign=middle;resizable=0;points=[];autosize=1;strokeColor=none;fillColor=none;" vertex="1" parent="1">
          <mxGeometry x="120" y="150" width="100" height="30" as="geometry" />
        </mxCell>
        <mxCell id="Ela1EfbPNly_L2jDQacJ-10" value="HTML &amp;lt;audio&amp;gt;" style="rounded=0;whiteSpace=wrap;html=1;" vertex="1" parent="1">
          <mxGeometry x="245" y="200" width="100" height="30" as="geometry" />
        </mxCell>
        <mxCell id="Ela1EfbPNly_L2jDQacJ-11" value="soundtouch.js&lt;div&gt;PitchShifter&lt;/div&gt;" style="rounded=0;whiteSpace=wrap;html=1;" vertex="1" parent="1">
          <mxGeometry x="245" y="300" width="100" height="30" as="geometry" />
        </mxCell>
        <mxCell id="Ela1EfbPNly_L2jDQacJ-20" value="" style="edgeStyle=orthogonalEdgeStyle;rounded=0;orthogonalLoop=1;jettySize=auto;html=1;" edge="1" parent="1" source="Ela1EfbPNly_L2jDQacJ-13" target="Ela1EfbPNly_L2jDQacJ-19">
          <mxGeometry relative="1" as="geometry" />
        </mxCell>
        <mxCell id="Ela1EfbPNly_L2jDQacJ-13" value="tone.js&lt;div&gt;Synth&lt;/div&gt;" style="rounded=0;whiteSpace=wrap;html=1;" vertex="1" parent="1">
          <mxGeometry x="115" y="200" width="90" height="30" as="geometry" />
        </mxCell>
        <mxCell id="Ela1EfbPNly_L2jDQacJ-19" value="Web Audio API&lt;div&gt;CompressorNode&lt;/div&gt;" style="rounded=0;whiteSpace=wrap;html=1;" vertex="1" parent="1">
          <mxGeometry x="100" y="300" width="120" height="30" as="geometry" />
        </mxCell>
        <mxCell id="Ela1EfbPNly_L2jDQacJ-22" value="" style="endArrow=classic;html=1;rounded=0;" edge="1" parent="1" source="Ela1EfbPNly_L2jDQacJ-10" target="Ela1EfbPNly_L2jDQacJ-11">
          <mxGeometry width="50" height="50" relative="1" as="geometry">
            <mxPoint x="150" y="370" as="sourcePoint" />
            <mxPoint x="200" y="320" as="targetPoint" />
            <Array as="points" />
          </mxGeometry>
        </mxCell>
        <mxCell id="Ela1EfbPNly_L2jDQacJ-23" value="Web Audio API&lt;div&gt;Gain Node&lt;/div&gt;" style="rounded=0;whiteSpace=wrap;html=1;" vertex="1" parent="1">
          <mxGeometry x="240" y="380" width="110" height="40" as="geometry" />
        </mxCell>
        <mxCell id="Ela1EfbPNly_L2jDQacJ-24" value="" style="endArrow=classic;html=1;rounded=0;exitX=0.75;exitY=1;exitDx=0;exitDy=0;" edge="1" parent="1" source="Ela1EfbPNly_L2jDQacJ-19" target="Ela1EfbPNly_L2jDQacJ-23">
          <mxGeometry width="50" height="50" relative="1" as="geometry">
            <mxPoint x="380" y="440" as="sourcePoint" />
            <mxPoint x="430" y="390" as="targetPoint" />
          </mxGeometry>
        </mxCell>
        <mxCell id="Ela1EfbPNly_L2jDQacJ-25" value="" style="endArrow=classic;html=1;rounded=0;" edge="1" parent="1" source="Ela1EfbPNly_L2jDQacJ-11" target="Ela1EfbPNly_L2jDQacJ-23">
          <mxGeometry width="50" height="50" relative="1" as="geometry">
            <mxPoint x="200" y="340" as="sourcePoint" />
            <mxPoint x="279" y="390" as="targetPoint" />
          </mxGeometry>
        </mxCell>
        <mxCell id="Ela1EfbPNly_L2jDQacJ-26" value="" style="pointerEvents=1;verticalLabelPosition=bottom;shadow=0;dashed=0;align=center;html=1;verticalAlign=top;shape=mxgraph.electrical.electro-mechanical.loudspeaker;" vertex="1" parent="1">
          <mxGeometry x="282.5" y="450" width="25" height="50" as="geometry" />
        </mxCell>
        <mxCell id="Ela1EfbPNly_L2jDQacJ-27" value="" style="endArrow=classic;html=1;rounded=0;entryX=0.5;entryY=0.1;entryDx=0;entryDy=0;entryPerimeter=0;" edge="1" parent="1" source="Ela1EfbPNly_L2jDQacJ-23" target="Ela1EfbPNly_L2jDQacJ-26">
          <mxGeometry width="50" height="50" relative="1" as="geometry">
            <mxPoint x="380" y="440" as="sourcePoint" />
            <mxPoint x="295" y="440" as="targetPoint" />
          </mxGeometry>
        </mxCell>
        <mxCell id="Ela1EfbPNly_L2jDQacJ-28" value="Audio File" style="sketch=0;pointerEvents=1;shadow=0;dashed=0;html=1;strokeColor=none;fillColor=#005F4B;labelPosition=center;verticalLabelPosition=bottom;verticalAlign=top;align=center;outlineConnect=0;shape=mxgraph.veeam2.audio_file;" vertex="1" parent="1">
          <mxGeometry x="397" y="70" width="28.000000000000004" height="39" as="geometry" />
        </mxCell>
        <mxCell id="Ela1EfbPNly_L2jDQacJ-29" value="" style="endArrow=classic;html=1;rounded=0;" edge="1" parent="1" source="Ela1EfbPNly_L2jDQacJ-28" target="Ela1EfbPNly_L2jDQacJ-10">
          <mxGeometry width="50" height="50" relative="1" as="geometry">
            <mxPoint x="400" y="350" as="sourcePoint" />
            <mxPoint x="450" y="300" as="targetPoint" />
            <Array as="points">
              <mxPoint x="330" y="130" />
            </Array>
          </mxGeometry>
        </mxCell>
        <mxCell id="Ela1EfbPNly_L2jDQacJ-30" value="granular.js&lt;div&gt;Granulator&lt;/div&gt;" style="rounded=0;whiteSpace=wrap;html=1;" vertex="1" parent="1">
          <mxGeometry x="380" y="200" width="90" height="30" as="geometry" />
        </mxCell>
        <mxCell id="Ela1EfbPNly_L2jDQacJ-31" value="Web Audio Api&lt;div&gt;ReverbNode&lt;/div&gt;" style="rounded=0;whiteSpace=wrap;html=1;" vertex="1" parent="1">
          <mxGeometry x="380" y="250" width="90" height="30" as="geometry" />
        </mxCell>
        <mxCell id="Ela1EfbPNly_L2jDQacJ-32" value="" style="endArrow=classic;html=1;rounded=0;exitX=0.5;exitY=1;exitDx=0;exitDy=0;" edge="1" parent="1" source="Ela1EfbPNly_L2jDQacJ-30" target="Ela1EfbPNly_L2jDQacJ-31">
          <mxGeometry width="50" height="50" relative="1" as="geometry">
            <mxPoint x="400" y="350" as="sourcePoint" />
            <mxPoint x="450" y="300" as="targetPoint" />
          </mxGeometry>
        </mxCell>
        <mxCell id="Ela1EfbPNly_L2jDQacJ-33" value="" style="endArrow=classic;html=1;rounded=0;" edge="1" parent="1" source="Ela1EfbPNly_L2jDQacJ-31" target="Ela1EfbPNly_L2jDQacJ-11">
          <mxGeometry width="50" height="50" relative="1" as="geometry">
            <mxPoint x="400" y="350" as="sourcePoint" />
            <mxPoint x="450" y="300" as="targetPoint" />
          </mxGeometry>
        </mxCell>
        <mxCell id="Ela1EfbPNly_L2jDQacJ-34" value="" style="rounded=1;whiteSpace=wrap;html=1;fillColor=#FFE785;strokeColor=#d6b656;" vertex="1" parent="1">
          <mxGeometry x="510" y="120" width="200" height="240" as="geometry" />
        </mxCell>
        <mxCell id="Ela1EfbPNly_L2jDQacJ-35" value="OfflineAudioContext" style="text;html=1;align=center;verticalAlign=middle;whiteSpace=wrap;rounded=0;" vertex="1" parent="1">
          <mxGeometry x="530" y="109" width="100" height="50" as="geometry" />
        </mxCell>
        <mxCell id="Ela1EfbPNly_L2jDQacJ-37" value="soundtouch.js&lt;div&gt;PitchShifter&lt;/div&gt;" style="rounded=0;whiteSpace=wrap;html=1;" vertex="1" parent="1">
          <mxGeometry x="560" y="220" width="100" height="30" as="geometry" />
        </mxCell>
        <mxCell id="Ela1EfbPNly_L2jDQacJ-39" value="Download" style="shadow=0;dashed=0;html=1;strokeColor=none;fillColor=#4495D1;labelPosition=center;verticalLabelPosition=bottom;verticalAlign=top;align=center;outlineConnect=0;shape=mxgraph.veeam.2d.download;" vertex="1" parent="1">
          <mxGeometry x="587.6" y="255.2" width="44.8" height="44.8" as="geometry" />
        </mxCell>
      </root>
    </mxGraphModel>
  </diagram>
</mxfile>
